<?xml version="1.0" standalone="no"?>
<!DOCTYPE svg PUBLIC "-//W3C//DTD SVG 20010904//EN"
 "http://www.w3.org/TR/2001/REC-SVG-20010904/DTD/svg10.dtd">
<svg version="1.0" xmlns="http://www.w3.org/2000/svg"
 width="500.000000pt" height="500.000000pt" viewBox="0 0 500.000000 500.000000"
 preserveAspectRatio="xMidYMid meet">

<g transform="translate(0.000000,500.000000) scale(0.100000,-0.100000)"
fill="#000000" stroke="none">
<path d="M1919 3856 c-25 -13 -149 -84 -275 -157 -126 -73 -314 -182 -419
-242 -104 -60 -202 -118 -217 -129 -41 -29 -37 -62 12 -94 l40 -27 0 -118 c0
-66 -4 -119 -8 -119 -5 0 -14 -12 -20 -26 -9 -19 -9 -30 -1 -47 8 -13 11 -68
10 -149 l-2 -128 46 0 46 0 -2 124 c-1 74 3 131 10 144 16 29 14 46 -9 75 -18
22 -20 40 -20 149 l1 123 167 96 c92 53 285 165 429 248 144 83 269 151 278
151 9 0 34 -10 55 -22 l40 -23 0 -121 0 -121 -39 19 c-34 17 -45 18 -83 8 -41
-12 -402 -214 -442 -249 -10 -9 -26 -33 -35 -53 l-16 -37 -104 59 c-57 33
-108 60 -113 60 -5 0 -27 -10 -49 -22 -34 -20 -39 -27 -37 -53 3 -27 17 -37
153 -115 l150 -86 5 -173 5 -172 40 -37 c58 -54 425 -262 461 -262 38 1 81 21
244 115 224 129 246 143 260 172 9 19 15 84 18 195 4 141 7 168 20 173 21 8
409 233 445 257 36 25 34 51 -5 83 -32 25 -704 418 -874 511 -45 24 -90 44
-100 44 -10 0 -40 -11 -65 -24z m379 -300 l63 -38 -3 -410 -3 -410 -30 -26
c-29 -27 -325 -202 -340 -202 -9 0 -313 174 -336 193 -36 28 -40 55 -40 245 1
163 3 190 19 211 27 37 319 201 356 201 20 0 69 -22 134 -59 l102 -59 0 199
c0 110 3 198 8 196 4 -2 35 -21 70 -41z m369 -212 c46 -25 85 -49 88 -54 5 -8
-67 -54 -207 -133 l-47 -27 -3 151 c-2 83 -1 152 1 155 2 2 22 -8 45 -22 23
-13 78 -45 123 -70z"/>
<path d="M1875 3114 c-135 -82 -125 -64 -125 -213 l0 -130 28 -19 c15 -11 67
-43 116 -71 75 -43 91 -49 110 -40 63 33 193 114 204 127 8 11 12 56 12 143
l0 127 -113 66 c-63 36 -120 66 -128 65 -8 0 -54 -25 -104 -55z"/>
<path d="M1020 2050 l0 -120 70 0 c63 0 70 2 70 20 0 17 -7 20 -40 20 -38 0
-40 2 -40 30 0 28 3 30 35 30 28 0 35 4 35 20 0 16 -7 20 -35 20 -31 0 -35 3
-35 25 0 23 4 25 40 25 36 0 40 3 40 25 0 24 -2 25 -70 25 l-70 0 0 -120z"/>
<path d="M1280 2138 c55 -85 56 -89 16 -151 l-37 -57 34 0 c26 0 36 6 51 32
l19 31 26 -32 c21 -25 33 -32 54 -29 l28 3 -36 57 -36 57 36 55 c19 30 35 58
35 61 0 3 -13 5 -29 5 -23 0 -34 -8 -52 -36 l-22 -36 -20 36 c-18 30 -26 36
-55 36 l-34 0 22 -32z"/>
<path d="M1625 2158 c-2 -7 -20 -58 -40 -113 -19 -55 -35 -103 -35 -107 0 -5
13 -8 29 -8 21 0 32 6 36 20 5 16 15 20 50 20 34 0 44 -4 48 -20 4 -14 14 -20
35 -20 l31 0 -41 120 -40 120 -34 0 c-19 0 -37 -6 -39 -12z m64 -140 c1 -5
-10 -8 -24 -8 -28 0 -30 4 -13 51 l11 33 13 -34 c7 -19 13 -38 13 -42z"/>
<path d="M1867 2163 c-4 -3 -7 -57 -7 -120 l0 -113 30 0 c29 0 29 1 32 63 l3
62 25 -62 c19 -50 29 -63 46 -63 16 0 27 13 47 58 l26 57 0 -57 c1 -58 1 -58
31 -58 l30 0 0 121 0 120 -32 -3 c-29 -3 -35 -9 -63 -75 -17 -40 -34 -75 -36
-78 -3 -2 -20 31 -38 75 -30 73 -35 80 -60 80 -15 0 -31 -3 -34 -7z"/>
<path d="M2220 2145 c0 -21 5 -25 30 -25 l30 0 0 -95 0 -95 30 0 30 0 0 94 0
95 33 3 c24 2 32 8 32 23 0 18 -8 20 -92 23 l-93 3 0 -26z"/>
<path d="M2490 2050 l0 -120 30 0 30 0 0 120 0 120 -30 0 -30 0 0 -120z"/>
<path d="M2660 2051 l0 -121 25 0 c24 0 25 3 25 62 0 69 6 69 35 -5 17 -42 26
-52 45 -52 19 0 28 10 45 52 29 74 35 74 35 5 0 -59 1 -62 25 -62 l25 0 0 121
0 120 -32 -3 c-29 -3 -34 -9 -61 -75 -16 -40 -33 -73 -37 -73 -4 0 -21 33 -38
73 -27 65 -33 72 -61 75 l-31 3 0 -120z"/>
<path d="M3030 2050 l0 -120 70 0 c63 0 70 2 70 20 0 17 -7 20 -40 20 -38 0
-40 2 -40 30 0 28 3 30 35 30 28 0 35 4 35 20 0 16 -7 20 -35 20 -31 0 -35 3
-35 25 0 23 4 25 40 25 36 0 40 3 40 25 0 24 -2 25 -70 25 l-70 0 0 -120z"/>
</g>
</svg>
